<svg xmlns="http://www.w3.org/2000/svg" width="1200" height="420" viewBox="0 0 1200 420" fill="none">
  <rect width="1200" height="420" rx="24" fill="#F8FAFC"/>
  <text x="80" y="66" fill="#0F172A" font-family="Arial, sans-serif" font-size="34" font-weight="700">DevOps 연속 흐름</text>
  <g font-family="Arial, sans-serif" font-size="20" font-weight="700" text-anchor="middle">
    <rect x="90" y="160" width="120" height="76" rx="18" fill="#DBEAFE" stroke="#60A5FA" stroke-width="3"/>
    <text x="150" y="206" fill="#1D4ED8">Plan</text>
    <rect x="240" y="120" width="120" height="76" rx="18" fill="#DCFCE7" stroke="#4ADE80" stroke-width="3"/>
    <text x="300" y="166" fill="#166534">Code</text>
    <rect x="390" y="160" width="120" height="76" rx="18" fill="#FEF3C7" stroke="#F59E0B" stroke-width="3"/>
    <text x="450" y="206" fill="#92400E">Build</text>
    <rect x="540" y="120" width="120" height="76" rx="18" fill="#FCE7F3" stroke="#EC4899" stroke-width="3"/>
    <text x="600" y="166" fill="#9D174D">Test</text>
    <rect x="690" y="160" width="120" height="76" rx="18" fill="#EDE9FE" stroke="#8B5CF6" stroke-width="3"/>
    <text x="750" y="206" fill="#6D28D9">Release</text>
    <rect x="840" y="120" width="120" height="76" rx="18" fill="#FFE4E6" stroke="#FB7185" stroke-width="3"/>
    <text x="900" y="166" fill="#BE123C">Deploy</text>
    <rect x="990" y="160" width="120" height="76" rx="18" fill="#E0F2FE" stroke="#38BDF8" stroke-width="3"/>
    <text x="1050" y="206" fill="#0369A1">Run</text>
  </g>
  <g stroke="#334155" stroke-width="5" stroke-linecap="round" stroke-linejoin="round">
    <path d="M210 198C238 198 222 160 240 160"/>
    <path d="M360 160C388 160 372 198 390 198"/>
    <path d="M510 198C538 198 522 160 540 160"/>
    <path d="M660 160C688 160 672 198 690 198"/>
    <path d="M810 198C838 198 822 160 840 160"/>
    <path d="M960 160C988 160 972 198 990 198"/>
    <path d="M1110 198C1140 198 1140 286 1030 286H170C100 286 70 250 70 206C70 162 92 126 132 120"/>
  </g>
  <text x="1070" y="320" fill="#475569" font-family="Arial, sans-serif" font-size="20">배포 후 운영 피드백이 다시 계획으로 연결됨</text>
</svg>
