<svg xmlns="http://www.w3.org/2000/svg" width="1200" height="520" viewBox="0 0 1200 520" fill="none">
  <rect width="1200" height="520" rx="24" fill="#F8FAFC"/>
  <text x="72" y="64" fill="#0F172A" font-family="Arial, sans-serif" font-size="34" font-weight="700">Function Point 산정 흐름</text>
  <g font-family="Arial, sans-serif" font-size="19" font-weight="700" text-anchor="middle">
    <rect x="70" y="160" width="160" height="88" rx="16" fill="#DBEAFE" stroke="#60A5FA" stroke-width="3"/><text x="150" y="197" fill="#1D4ED8">Type</text><text x="150" y="224" fill="#1D4ED8">결정</text>
    <rect x="270" y="160" width="160" height="88" rx="16" fill="#DCFCE7" stroke="#4ADE80" stroke-width="3"/><text x="350" y="197" fill="#166534">Boundary</text><text x="350" y="224" fill="#166534">선정</text>
    <rect x="470" y="160" width="160" height="88" rx="16" fill="#FEF3C7" stroke="#F59E0B" stroke-width="3"/><text x="550" y="197" fill="#92400E">ILF/EIF</text><text x="550" y="224" fill="#92400E">산정</text>
    <rect x="670" y="160" width="160" height="88" rx="16" fill="#FCE7F3" stroke="#EC4899" stroke-width="3"/><text x="750" y="197" fill="#9D174D">EI/EO/EQ</text><text x="750" y="224" fill="#9D174D">산정</text>
    <rect x="870" y="160" width="160" height="88" rx="16" fill="#EDE9FE" stroke="#8B5CF6" stroke-width="3"/><text x="950" y="197" fill="#6D28D9">UFP</text><text x="950" y="224" fill="#6D28D9">예비점수</text>
    <rect x="470" y="330" width="260" height="88" rx="16" fill="#E0F2FE" stroke="#38BDF8" stroke-width="3"/><text x="600" y="366" fill="#0369A1">VAF = TDI x 0.01 + 0.65</text><text x="600" y="394" fill="#0369A1">최종 FP = UFP x VAF</text>
  </g>
  <g stroke="#334155" stroke-width="5" stroke-linecap="round" stroke-linejoin="round">
    <path d="M230 204H270"/><path d="M430 204H470"/><path d="M630 204H670"/><path d="M830 204H870"/>
    <path d="M950 248C950 308 730 308 680 330"/>
  </g>
</svg>