<svg xmlns="http://www.w3.org/2000/svg" width="1200" height="420" viewBox="0 0 1200 420" fill="none">
  <rect width="1200" height="420" rx="24" fill="#F8FAFC"/>
  <text x="80" y="66" fill="#0F172A" font-family="Arial, sans-serif" font-size="34" font-weight="700">Git 기본 흐름</text>
  <g font-family="Arial, sans-serif" font-size="22" font-weight="700" text-anchor="middle">
    <rect x="70" y="160" width="190" height="90" rx="18" fill="#DBEAFE" stroke="#60A5FA" stroke-width="3"/>
    <text x="165" y="214" fill="#1D4ED8">Working Tree</text>

    <rect x="330" y="160" width="190" height="90" rx="18" fill="#DCFCE7" stroke="#4ADE80" stroke-width="3"/>
    <text x="425" y="214" fill="#166534">Staging Area</text>

    <rect x="590" y="160" width="190" height="90" rx="18" fill="#FEF3C7" stroke="#F59E0B" stroke-width="3"/>
    <text x="685" y="214" fill="#92400E">Local Repo</text>

    <rect x="850" y="160" width="230" height="90" rx="18" fill="#FCE7F3" stroke="#EC4899" stroke-width="3"/>
    <text x="965" y="214" fill="#9D174D">Remote Repo</text>
  </g>

  <g stroke="#334155" stroke-width="6" stroke-linecap="round" stroke-linejoin="round">
    <path d="M260 205H322"/>
    <path d="M520 205H582"/>
    <path d="M780 205H842"/>
    <path d="M315 190L330 205L315 220"/>
    <path d="M575 190L590 205L575 220"/>
    <path d="M835 190L850 205L835 220"/>
  </g>

  <text x="163" y="300" fill="#475569" font-family="Arial, sans-serif" font-size="20">작업 중인 변경</text>
  <text x="425" y="300" fill="#475569" font-family="Arial, sans-serif" font-size="20">커밋 준비</text>
  <text x="685" y="300" fill="#475569" font-family="Arial, sans-serif" font-size="20">저장된 히스토리</text>
  <text x="965" y="300" fill="#475569" font-family="Arial, sans-serif" font-size="20">원격 공유 저장소</text>
</svg>
